<?xml version="1.0" encoding="utf-8"?>
<!-- Generator: Adobe Illustrator 21.0.2, SVG Export Plug-In . SVG Version: 6.00 Build 0)  -->
<svg version="1.1" id="Слой_1" xmlns="http://www.w3.org/2000/svg" xmlns:xlink="http://www.w3.org/1999/xlink" x="0px" y="0px"
	 viewBox="0 0 36 27.1" style="enable-background:new 0 0 36 27.1;" xml:space="preserve">
<style type="text/css">
	.st0{fill:#f94b02;}
</style>
<path class="st0" d="M24,0c0,3.2,0,6.5,0,9.7c0.5,0.1,0.8,0.2,1,0.1c7.4-3.9,11-1.8,11.1,6.6c0.1,3.4,0,6.7,0,10.3
	c-1.6,0-2.9,0-4.6,0c0-3.7,0.3-7.5-0.1-11.2c-0.2-1.5-1.5-3.6-2.7-4c-2.1-0.7-3.9,0.9-4.1,3.2c-0.4,3.9-0.6,7.9-0.8,12.1
	c-1.2,0.1-2.4,0.1-4.3,0.2c0-9.2,0-18.1,0-27.1C21,0,22.5,0,24,0z"/>
<path class="st0" d="M4.5,0c0,3.3,0,6.6,0,10.7c1.5-1,2.2-1.6,3.1-2c4.2-2.2,8.7,0.1,9,4.7c0.3,4.3,0.1,8.7,0.1,13.5
	c-1.4,0.1-2.7,0.1-4.5,0.2c0-4.2,0-8,0-11.8c0-2.2-0.8-4.1-3-3.7c-1.4,0.2-3.5,1.9-3.7,3.2c-0.7,3.9-0.7,7.9-1,12.4
	c-1.5,0-2.9,0-4.4,0C0,18,0,9,0,0C1.5,0,3,0,4.5,0z"/>
</svg>
